<svg xmlns="http://www.w3.org/2000/svg" viewBox="0 0 1200 350" role="img" aria-label="Life K-line chart">
<rect width="1200" height="350" rx="18" fill="#0D1117"/>
<line x1="36" y1="308" x2="1164" y2="308" stroke="#30363D" stroke-width="1"/>
<line x1="36.00" y1="218.59" x2="36.00" y2="233.82" stroke="#67C49A" stroke-width="2" stroke-linecap="round"/>
<rect x="31.81" y="218.59" width="8.39" height="6.53" rx="1.5" fill="#67C49A"/>
<line x1="50.65" y1="225.12" x2="50.65" y2="229.34" stroke="#E85B55" stroke-width="2" stroke-linecap="round"/>
<rect x="46.46" y="225.12" width="8.39" height="3.00" rx="1.5" fill="#E85B55"/>
<line x1="65.30" y1="214.56" x2="65.30" y2="225.12" stroke="#E85B55" stroke-width="2" stroke-linecap="round"/>
<rect x="61.10" y="214.56" width="8.39" height="10.56" rx="1.5" fill="#E85B55"/>
<line x1="79.95" y1="212.34" x2="79.95" y2="214.56" stroke="#E85B55" stroke-width="2" stroke-linecap="round"/>
<rect x="75.75" y="214.56" width="8.39" height="3.00" rx="1.5" fill="#E85B55"/>
<line x1="94.60" y1="203.48" x2="94.60" y2="214.56" stroke="#E85B55" stroke-width="2" stroke-linecap="round"/>
<rect x="90.40" y="207.90" width="8.39" height="6.66" rx="1.5" fill="#E85B55"/>
<line x1="109.25" y1="205.61" x2="109.25" y2="210.18" stroke="#E85B55" stroke-width="2" stroke-linecap="round"/>
<rect x="105.05" y="205.61" width="8.39" height="3.00" rx="1.5" fill="#E85B55"/>
<line x1="123.90" y1="205.61" x2="123.90" y2="214.84" stroke="#67C49A" stroke-width="2" stroke-linecap="round"/>
<rect x="119.70" y="205.61" width="8.39" height="6.92" rx="1.5" fill="#67C49A"/>
<line x1="138.55" y1="208.05" x2="138.55" y2="234.91" stroke="#67C49A" stroke-width="2" stroke-linecap="round"/>
<rect x="134.35" y="212.53" width="8.39" height="13.43" rx="1.5" fill="#67C49A"/>
<line x1="153.19" y1="225.97" x2="153.19" y2="236.48" stroke="#67C49A" stroke-width="2" stroke-linecap="round"/>
<rect x="149.00" y="225.97" width="8.39" height="10.51" rx="1.5" fill="#67C49A"/>
<line x1="167.84" y1="234.48" x2="167.84" y2="238.48" stroke="#67C49A" stroke-width="2" stroke-linecap="round"/>
<rect x="163.65" y="236.48" width="8.39" height="3.00" rx="1.5" fill="#67C49A"/>
<line x1="182.49" y1="238.48" x2="182.49" y2="250.35" stroke="#67C49A" stroke-width="2" stroke-linecap="round"/>
<rect x="178.30" y="238.48" width="8.39" height="9.88" rx="1.5" fill="#67C49A"/>
<line x1="197.14" y1="240.86" x2="197.14" y2="248.37" stroke="#E85B55" stroke-width="2" stroke-linecap="round"/>
<rect x="192.95" y="244.60" width="8.39" height="3.77" rx="1.5" fill="#E85B55"/>
<line x1="211.79" y1="244.60" x2="211.79" y2="248.43" stroke="#67C49A" stroke-width="2" stroke-linecap="round"/>
<rect x="207.60" y="244.60" width="8.39" height="3.83" rx="1.5" fill="#67C49A"/>
<line x1="226.44" y1="239.05" x2="226.44" y2="248.43" stroke="#E85B55" stroke-width="2" stroke-linecap="round"/>
<rect x="222.25" y="239.05" width="8.39" height="9.38" rx="1.5" fill="#E85B55"/>
<line x1="241.09" y1="239.05" x2="241.09" y2="244.97" stroke="#67C49A" stroke-width="2" stroke-linecap="round"/>
<rect x="236.90" y="239.05" width="8.39" height="5.92" rx="1.5" fill="#67C49A"/>
<line x1="255.74" y1="244.97" x2="255.74" y2="250.72" stroke="#67C49A" stroke-width="2" stroke-linecap="round"/>
<rect x="251.55" y="244.97" width="8.39" height="3.00" rx="1.5" fill="#67C49A"/>
<line x1="270.39" y1="231.73" x2="270.39" y2="246.89" stroke="#E85B55" stroke-width="2" stroke-linecap="round"/>
<rect x="266.20" y="231.73" width="8.39" height="15.15" rx="1.5" fill="#E85B55"/>
<line x1="285.04" y1="227.64" x2="285.04" y2="231.73" stroke="#E85B55" stroke-width="2" stroke-linecap="round"/>
<rect x="280.85" y="227.64" width="8.39" height="4.09" rx="1.5" fill="#E85B55"/>
<line x1="299.69" y1="221.37" x2="299.69" y2="227.64" stroke="#E85B55" stroke-width="2" stroke-linecap="round"/>
<rect x="295.49" y="225.55" width="8.39" height="3.00" rx="1.5" fill="#E85B55"/>
<line x1="314.34" y1="221.33" x2="314.34" y2="229.78" stroke="#67C49A" stroke-width="2" stroke-linecap="round"/>
<rect x="310.14" y="225.55" width="8.39" height="4.22" rx="1.5" fill="#67C49A"/>
<line x1="328.99" y1="229.78" x2="328.99" y2="246.30" stroke="#67C49A" stroke-width="2" stroke-linecap="round"/>
<rect x="324.79" y="229.78" width="8.39" height="16.52" rx="1.5" fill="#67C49A"/>
<line x1="343.64" y1="234.89" x2="343.64" y2="246.30" stroke="#E85B55" stroke-width="2" stroke-linecap="round"/>
<rect x="339.44" y="234.89" width="8.39" height="11.41" rx="1.5" fill="#E85B55"/>
<line x1="358.29" y1="234.89" x2="358.29" y2="242.95" stroke="#67C49A" stroke-width="2" stroke-linecap="round"/>
<rect x="354.09" y="234.89" width="8.39" height="3.00" rx="1.5" fill="#67C49A"/>
<line x1="372.94" y1="236.92" x2="372.94" y2="254.85" stroke="#67C49A" stroke-width="2" stroke-linecap="round"/>
<rect x="368.74" y="236.92" width="8.39" height="17.94" rx="1.5" fill="#67C49A"/>
<line x1="387.58" y1="254.85" x2="387.58" y2="272.99" stroke="#67C49A" stroke-width="2" stroke-linecap="round"/>
<rect x="383.39" y="254.85" width="8.39" height="18.13" rx="1.5" fill="#67C49A"/>
<line x1="402.23" y1="271.35" x2="402.23" y2="279.52" stroke="#E85B55" stroke-width="2" stroke-linecap="round"/>
<rect x="398.04" y="271.35" width="8.39" height="3.00" rx="1.5" fill="#E85B55"/>
<line x1="416.88" y1="269.70" x2="416.88" y2="277.95" stroke="#67C49A" stroke-width="2" stroke-linecap="round"/>
<rect x="412.69" y="271.35" width="8.39" height="6.60" rx="1.5" fill="#67C49A"/>
<line x1="431.53" y1="262.12" x2="431.53" y2="277.95" stroke="#E85B55" stroke-width="2" stroke-linecap="round"/>
<rect x="427.34" y="266.87" width="8.39" height="11.08" rx="1.5" fill="#E85B55"/>
<line x1="446.18" y1="253.31" x2="446.18" y2="266.87" stroke="#E85B55" stroke-width="2" stroke-linecap="round"/>
<rect x="441.99" y="253.31" width="8.39" height="13.56" rx="1.5" fill="#E85B55"/>
<line x1="460.83" y1="253.31" x2="460.83" y2="264.28" stroke="#67C49A" stroke-width="2" stroke-linecap="round"/>
<rect x="456.64" y="253.31" width="8.39" height="7.31" rx="1.5" fill="#67C49A"/>
<line x1="475.48" y1="257.12" x2="475.48" y2="260.62" stroke="#E85B55" stroke-width="2" stroke-linecap="round"/>
<rect x="471.29" y="257.12" width="8.39" height="3.50" rx="1.5" fill="#E85B55"/>
<line x1="490.13" y1="257.12" x2="490.13" y2="271.44" stroke="#67C49A" stroke-width="2" stroke-linecap="round"/>
<rect x="485.94" y="257.12" width="8.39" height="14.32" rx="1.5" fill="#67C49A"/>
<line x1="504.78" y1="271.44" x2="504.78" y2="278.04" stroke="#67C49A" stroke-width="2" stroke-linecap="round"/>
<rect x="500.59" y="271.44" width="8.39" height="6.60" rx="1.5" fill="#67C49A"/>
<line x1="519.43" y1="273.29" x2="519.43" y2="278.04" stroke="#E85B55" stroke-width="2" stroke-linecap="round"/>
<rect x="515.23" y="273.29" width="8.39" height="4.75" rx="1.5" fill="#E85B55"/>
<line x1="534.08" y1="260.25" x2="534.08" y2="273.29" stroke="#E85B55" stroke-width="2" stroke-linecap="round"/>
<rect x="529.88" y="260.25" width="8.39" height="13.04" rx="1.5" fill="#E85B55"/>
<line x1="548.73" y1="249.69" x2="548.73" y2="262.01" stroke="#67C49A" stroke-width="2" stroke-linecap="round"/>
<rect x="544.53" y="260.25" width="8.39" height="3.00" rx="1.5" fill="#67C49A"/>
<line x1="563.38" y1="262.01" x2="563.38" y2="268.98" stroke="#67C49A" stroke-width="2" stroke-linecap="round"/>
<rect x="559.18" y="262.01" width="8.39" height="6.97" rx="1.5" fill="#67C49A"/>
<line x1="578.03" y1="252.26" x2="578.03" y2="268.98" stroke="#E85B55" stroke-width="2" stroke-linecap="round"/>
<rect x="573.83" y="252.26" width="8.39" height="16.72" rx="1.5" fill="#E85B55"/>
<line x1="592.68" y1="244.90" x2="592.68" y2="257.79" stroke="#E85B55" stroke-width="2" stroke-linecap="round"/>
<rect x="588.48" y="246.73" width="8.39" height="5.53" rx="1.5" fill="#E85B55"/>
<line x1="607.32" y1="246.73" x2="607.32" y2="254.31" stroke="#67C49A" stroke-width="2" stroke-linecap="round"/>
<rect x="603.13" y="246.73" width="8.39" height="7.58" rx="1.5" fill="#67C49A"/>
<line x1="621.97" y1="245.21" x2="621.97" y2="254.31" stroke="#E85B55" stroke-width="2" stroke-linecap="round"/>
<rect x="617.78" y="245.21" width="8.39" height="9.10" rx="1.5" fill="#E85B55"/>
<line x1="636.62" y1="239.48" x2="636.62" y2="245.21" stroke="#E85B55" stroke-width="2" stroke-linecap="round"/>
<rect x="632.43" y="239.48" width="8.39" height="5.73" rx="1.5" fill="#E85B55"/>
<line x1="651.27" y1="239.48" x2="651.27" y2="259.16" stroke="#67C49A" stroke-width="2" stroke-linecap="round"/>
<rect x="647.08" y="239.48" width="8.39" height="13.78" rx="1.5" fill="#67C49A"/>
<line x1="665.92" y1="234.96" x2="665.92" y2="253.26" stroke="#E85B55" stroke-width="2" stroke-linecap="round"/>
<rect x="661.73" y="234.96" width="8.39" height="18.31" rx="1.5" fill="#E85B55"/>
<line x1="680.57" y1="222.87" x2="680.57" y2="234.96" stroke="#E85B55" stroke-width="2" stroke-linecap="round"/>
<rect x="676.38" y="222.87" width="8.39" height="12.08" rx="1.5" fill="#E85B55"/>
<line x1="695.22" y1="222.87" x2="695.22" y2="235.67" stroke="#67C49A" stroke-width="2" stroke-linecap="round"/>
<rect x="691.03" y="222.87" width="8.39" height="8.53" rx="1.5" fill="#67C49A"/>
<line x1="709.87" y1="221.15" x2="709.87" y2="231.41" stroke="#E85B55" stroke-width="2" stroke-linecap="round"/>
<rect x="705.68" y="221.15" width="8.39" height="10.25" rx="1.5" fill="#E85B55"/>
<line x1="724.52" y1="221.15" x2="724.52" y2="227.60" stroke="#67C49A" stroke-width="2" stroke-linecap="round"/>
<rect x="720.33" y="221.15" width="8.39" height="6.44" rx="1.5" fill="#67C49A"/>
<line x1="739.17" y1="208.81" x2="739.17" y2="227.60" stroke="#E85B55" stroke-width="2" stroke-linecap="round"/>
<rect x="734.97" y="208.81" width="8.39" height="18.79" rx="1.5" fill="#E85B55"/>
<line x1="753.82" y1="188.35" x2="753.82" y2="208.81" stroke="#E85B55" stroke-width="2" stroke-linecap="round"/>
<rect x="749.62" y="188.35" width="8.39" height="20.46" rx="1.5" fill="#E85B55"/>
<line x1="768.47" y1="180.90" x2="768.47" y2="193.31" stroke="#E85B55" stroke-width="2" stroke-linecap="round"/>
<rect x="764.27" y="183.39" width="8.39" height="4.96" rx="1.5" fill="#E85B55"/>
<line x1="783.12" y1="180.86" x2="783.12" y2="193.51" stroke="#E85B55" stroke-width="2" stroke-linecap="round"/>
<rect x="778.92" y="180.86" width="8.39" height="3.00" rx="1.5" fill="#E85B55"/>
<line x1="797.77" y1="180.86" x2="797.77" y2="196.19" stroke="#67C49A" stroke-width="2" stroke-linecap="round"/>
<rect x="793.57" y="180.86" width="8.39" height="7.66" rx="1.5" fill="#67C49A"/>
<line x1="812.42" y1="183.56" x2="812.42" y2="188.52" stroke="#E85B55" stroke-width="2" stroke-linecap="round"/>
<rect x="808.22" y="183.56" width="8.39" height="4.96" rx="1.5" fill="#E85B55"/>
<line x1="827.06" y1="178.51" x2="827.06" y2="183.56" stroke="#E85B55" stroke-width="2" stroke-linecap="round"/>
<rect x="822.87" y="178.51" width="8.39" height="5.05" rx="1.5" fill="#E85B55"/>
<line x1="841.71" y1="178.51" x2="841.71" y2="183.67" stroke="#67C49A" stroke-width="2" stroke-linecap="round"/>
<rect x="837.52" y="178.51" width="8.39" height="3.00" rx="1.5" fill="#67C49A"/>
<line x1="856.36" y1="181.08" x2="856.36" y2="201.50" stroke="#67C49A" stroke-width="2" stroke-linecap="round"/>
<rect x="852.17" y="181.08" width="8.39" height="7.66" rx="1.5" fill="#67C49A"/>
<line x1="871.01" y1="173.89" x2="871.01" y2="188.74" stroke="#E85B55" stroke-width="2" stroke-linecap="round"/>
<rect x="866.82" y="178.84" width="8.39" height="9.90" rx="1.5" fill="#E85B55"/>
<line x1="885.66" y1="158.24" x2="885.66" y2="178.84" stroke="#E85B55" stroke-width="2" stroke-linecap="round"/>
<rect x="881.47" y="158.24" width="8.39" height="20.59" rx="1.5" fill="#E85B55"/>
<line x1="900.31" y1="149.90" x2="900.31" y2="158.24" stroke="#E85B55" stroke-width="2" stroke-linecap="round"/>
<rect x="896.12" y="149.90" width="8.39" height="8.34" rx="1.5" fill="#E85B55"/>
<line x1="914.96" y1="135.58" x2="914.96" y2="149.90" stroke="#E85B55" stroke-width="2" stroke-linecap="round"/>
<rect x="910.77" y="135.58" width="8.39" height="14.32" rx="1.5" fill="#E85B55"/>
<line x1="929.61" y1="135.58" x2="929.61" y2="144.59" stroke="#67C49A" stroke-width="2" stroke-linecap="round"/>
<rect x="925.42" y="135.58" width="8.39" height="9.01" rx="1.5" fill="#67C49A"/>
<line x1="944.26" y1="115.42" x2="944.26" y2="144.59" stroke="#E85B55" stroke-width="2" stroke-linecap="round"/>
<rect x="940.07" y="115.42" width="8.39" height="29.17" rx="1.5" fill="#E85B55"/>
<line x1="958.91" y1="115.42" x2="958.91" y2="141.09" stroke="#67C49A" stroke-width="2" stroke-linecap="round"/>
<rect x="954.72" y="115.42" width="8.39" height="25.67" rx="1.5" fill="#67C49A"/>
<line x1="973.56" y1="138.13" x2="973.56" y2="155.85" stroke="#E85B55" stroke-width="2" stroke-linecap="round"/>
<rect x="969.36" y="138.13" width="8.39" height="3.00" rx="1.5" fill="#E85B55"/>
<line x1="988.21" y1="138.13" x2="988.21" y2="150.06" stroke="#67C49A" stroke-width="2" stroke-linecap="round"/>
<rect x="984.01" y="138.13" width="8.39" height="5.96" rx="1.5" fill="#67C49A"/>
<line x1="1002.86" y1="144.09" x2="1002.86" y2="155.78" stroke="#67C49A" stroke-width="2" stroke-linecap="round"/>
<rect x="998.66" y="144.09" width="8.39" height="11.69" rx="1.5" fill="#67C49A"/>
<line x1="1017.51" y1="147.36" x2="1017.51" y2="155.78" stroke="#E85B55" stroke-width="2" stroke-linecap="round"/>
<rect x="1013.31" y="147.36" width="8.39" height="8.42" rx="1.5" fill="#E85B55"/>
<line x1="1032.16" y1="118.47" x2="1032.16" y2="147.36" stroke="#E85B55" stroke-width="2" stroke-linecap="round"/>
<rect x="1027.96" y="118.47" width="8.39" height="28.89" rx="1.5" fill="#E85B55"/>
<line x1="1046.81" y1="86.69" x2="1046.81" y2="118.47" stroke="#E85B55" stroke-width="2" stroke-linecap="round"/>
<rect x="1042.61" y="86.69" width="8.39" height="31.78" rx="1.5" fill="#E85B55"/>
<line x1="1061.45" y1="86.69" x2="1061.45" y2="107.67" stroke="#67C49A" stroke-width="2" stroke-linecap="round"/>
<rect x="1057.26" y="86.69" width="8.39" height="3.50" rx="1.5" fill="#67C49A"/>
<line x1="1076.10" y1="90.19" x2="1076.10" y2="97.11" stroke="#E85B55" stroke-width="2" stroke-linecap="round"/>
<rect x="1071.91" y="90.19" width="8.39" height="3.00" rx="1.5" fill="#E85B55"/>
<line x1="1090.75" y1="90.19" x2="1090.75" y2="124.80" stroke="#67C49A" stroke-width="2" stroke-linecap="round"/>
<rect x="1086.56" y="90.19" width="8.39" height="34.61" rx="1.5" fill="#67C49A"/>
<line x1="1105.40" y1="124.80" x2="1105.40" y2="149.73" stroke="#67C49A" stroke-width="2" stroke-linecap="round"/>
<rect x="1101.21" y="124.80" width="8.39" height="9.34" rx="1.5" fill="#67C49A"/>
<line x1="1120.05" y1="122.06" x2="1120.05" y2="134.14" stroke="#E85B55" stroke-width="2" stroke-linecap="round"/>
<rect x="1115.86" y="122.06" width="8.39" height="12.08" rx="1.5" fill="#E85B55"/>
<line x1="1134.70" y1="90.65" x2="1134.70" y2="122.06" stroke="#E85B55" stroke-width="2" stroke-linecap="round"/>
<rect x="1130.51" y="90.65" width="8.39" height="31.41" rx="1.5" fill="#E85B55"/>
<line x1="1149.35" y1="56.08" x2="1149.35" y2="90.65" stroke="#E85B55" stroke-width="2" stroke-linecap="round"/>
<rect x="1145.16" y="56.08" width="8.39" height="34.57" rx="1.5" fill="#E85B55"/>
<line x1="1164.00" y1="48.48" x2="1164.00" y2="94.09" stroke="#67C49A" stroke-width="2" stroke-linecap="round"/>
<rect x="1159.81" y="56.08" width="8.39" height="38.01" rx="1.5" fill="#67C49A"/>
<line x1="36.00" y1="308" x2="36.00" y2="313" stroke="#30363D" stroke-width="1"/>
<text x="36.00" y="333" fill="#8B949E" font-family="ui-monospace, Consolas, monospace" font-size="12" text-anchor="middle">06/03</text>
<line x1="255.74" y1="308" x2="255.74" y2="313" stroke="#30363D" stroke-width="1"/>
<text x="255.74" y="333" fill="#8B949E" font-family="ui-monospace, Consolas, monospace" font-size="12" text-anchor="middle">06/18</text>
<line x1="490.13" y1="308" x2="490.13" y2="313" stroke="#30363D" stroke-width="1"/>
<text x="490.13" y="333" fill="#8B949E" font-family="ui-monospace, Consolas, monospace" font-size="12" text-anchor="middle">07/09</text>
<line x1="709.87" y1="308" x2="709.87" y2="313" stroke="#30363D" stroke-width="1"/>
<text x="709.87" y="333" fill="#8B949E" font-family="ui-monospace, Consolas, monospace" font-size="12" text-anchor="middle">07/24</text>
<line x1="944.26" y1="308" x2="944.26" y2="313" stroke="#30363D" stroke-width="1"/>
<text x="944.26" y="333" fill="#8B949E" font-family="ui-monospace, Consolas, monospace" font-size="12" text-anchor="middle">08/09</text>
<line x1="1164.00" y1="308" x2="1164.00" y2="313" stroke="#30363D" stroke-width="1"/>
<text x="1164.00" y="333" fill="#8B949E" font-family="ui-monospace, Consolas, monospace" font-size="12" text-anchor="middle">08/24</text>
<path d="M 1164.00 48.48 V 36.48 H 1108.00" fill="none" stroke="#8B949E" stroke-width="1.25" stroke-linecap="round"/>
<text x="1103.00" y="44.00" fill="#8B949E" font-family="ui-monospace, Consolas, monospace" font-size="13" text-anchor="end">前高 178.1</text>
<path d="M 402.23 279.52 V 291.52 H 458.23" fill="none" stroke="#8B949E" stroke-width="1.25" stroke-linecap="round"/>
<text x="463.23" y="290.00" fill="#8B949E" font-family="ui-monospace, Consolas, monospace" font-size="13" text-anchor="start">前低 72.0</text>
</svg>
