<svg xmlns="http://www.w3.org/2000/svg" viewBox="0 0 1200 350" role="img" aria-label="Life K-line chart">
<rect width="1200" height="350" rx="18" fill="#0D1117"/>
<line x1="36" y1="308" x2="1164" y2="308" stroke="#30363D" stroke-width="1"/>
<line x1="36.00" y1="193.73" x2="36.00" y2="215.18" stroke="#67C49A" stroke-width="2" stroke-linecap="round"/>
<rect x="31.00" y="193.73" width="10.00" height="9.19" rx="1.5" fill="#67C49A"/>
<line x1="53.62" y1="202.92" x2="53.62" y2="208.87" stroke="#E85B55" stroke-width="2" stroke-linecap="round"/>
<rect x="48.62" y="202.92" width="10.00" height="3.00" rx="1.5" fill="#E85B55"/>
<line x1="71.25" y1="188.06" x2="71.25" y2="202.92" stroke="#E85B55" stroke-width="2" stroke-linecap="round"/>
<rect x="66.25" y="188.06" width="10.00" height="14.86" rx="1.5" fill="#E85B55"/>
<line x1="88.88" y1="184.93" x2="88.88" y2="188.06" stroke="#E85B55" stroke-width="2" stroke-linecap="round"/>
<rect x="83.88" y="188.06" width="10.00" height="3.00" rx="1.5" fill="#E85B55"/>
<line x1="106.50" y1="172.46" x2="106.50" y2="188.06" stroke="#E85B55" stroke-width="2" stroke-linecap="round"/>
<rect x="101.50" y="178.68" width="10.00" height="9.38" rx="1.5" fill="#E85B55"/>
<line x1="124.12" y1="175.46" x2="124.12" y2="181.90" stroke="#E85B55" stroke-width="2" stroke-linecap="round"/>
<rect x="119.12" y="175.46" width="10.00" height="3.22" rx="1.5" fill="#E85B55"/>
<line x1="141.75" y1="175.46" x2="141.75" y2="188.46" stroke="#67C49A" stroke-width="2" stroke-linecap="round"/>
<rect x="136.75" y="175.46" width="10.00" height="9.75" rx="1.5" fill="#67C49A"/>
<line x1="159.38" y1="178.90" x2="159.38" y2="216.72" stroke="#67C49A" stroke-width="2" stroke-linecap="round"/>
<rect x="154.38" y="185.21" width="10.00" height="18.91" rx="1.5" fill="#67C49A"/>
<line x1="177.00" y1="204.12" x2="177.00" y2="218.92" stroke="#67C49A" stroke-width="2" stroke-linecap="round"/>
<rect x="172.00" y="204.12" width="10.00" height="14.80" rx="1.5" fill="#67C49A"/>
<line x1="194.62" y1="216.10" x2="194.62" y2="221.74" stroke="#67C49A" stroke-width="2" stroke-linecap="round"/>
<rect x="189.62" y="218.92" width="10.00" height="3.00" rx="1.5" fill="#67C49A"/>
<line x1="212.25" y1="221.74" x2="212.25" y2="238.45" stroke="#67C49A" stroke-width="2" stroke-linecap="round"/>
<rect x="207.25" y="221.74" width="10.00" height="13.91" rx="1.5" fill="#67C49A"/>
<line x1="229.88" y1="225.08" x2="229.88" y2="235.66" stroke="#E85B55" stroke-width="2" stroke-linecap="round"/>
<rect x="224.88" y="230.36" width="10.00" height="5.30" rx="1.5" fill="#E85B55"/>
<line x1="247.50" y1="230.36" x2="247.50" y2="235.75" stroke="#67C49A" stroke-width="2" stroke-linecap="round"/>
<rect x="242.50" y="230.36" width="10.00" height="5.39" rx="1.5" fill="#67C49A"/>
<line x1="265.12" y1="222.54" x2="265.12" y2="235.75" stroke="#E85B55" stroke-width="2" stroke-linecap="round"/>
<rect x="260.12" y="222.54" width="10.00" height="13.21" rx="1.5" fill="#E85B55"/>
<line x1="282.75" y1="222.54" x2="282.75" y2="230.88" stroke="#67C49A" stroke-width="2" stroke-linecap="round"/>
<rect x="277.75" y="222.54" width="10.00" height="8.34" rx="1.5" fill="#67C49A"/>
<line x1="300.38" y1="230.88" x2="300.38" y2="238.97" stroke="#67C49A" stroke-width="2" stroke-linecap="round"/>
<rect x="295.38" y="230.88" width="10.00" height="3.00" rx="1.5" fill="#67C49A"/>
<line x1="318.00" y1="212.24" x2="318.00" y2="233.57" stroke="#E85B55" stroke-width="2" stroke-linecap="round"/>
<rect x="313.00" y="212.24" width="10.00" height="21.33" rx="1.5" fill="#E85B55"/>
<line x1="335.62" y1="206.48" x2="335.62" y2="212.24" stroke="#E85B55" stroke-width="2" stroke-linecap="round"/>
<rect x="330.62" y="206.48" width="10.00" height="5.76" rx="1.5" fill="#E85B55"/>
<line x1="353.25" y1="197.65" x2="353.25" y2="206.48" stroke="#E85B55" stroke-width="2" stroke-linecap="round"/>
<rect x="348.25" y="203.54" width="10.00" height="3.00" rx="1.5" fill="#E85B55"/>
<line x1="370.88" y1="197.59" x2="370.88" y2="209.48" stroke="#67C49A" stroke-width="2" stroke-linecap="round"/>
<rect x="365.88" y="203.54" width="10.00" height="5.95" rx="1.5" fill="#67C49A"/>
<line x1="388.50" y1="209.48" x2="388.50" y2="232.75" stroke="#67C49A" stroke-width="2" stroke-linecap="round"/>
<rect x="383.50" y="209.48" width="10.00" height="23.26" rx="1.5" fill="#67C49A"/>
<line x1="406.12" y1="216.69" x2="406.12" y2="232.75" stroke="#E85B55" stroke-width="2" stroke-linecap="round"/>
<rect x="401.12" y="216.69" width="10.00" height="16.06" rx="1.5" fill="#E85B55"/>
<line x1="423.75" y1="216.69" x2="423.75" y2="228.03" stroke="#67C49A" stroke-width="2" stroke-linecap="round"/>
<rect x="418.75" y="216.69" width="10.00" height="3.00" rx="1.5" fill="#67C49A"/>
<line x1="441.38" y1="219.54" x2="441.38" y2="244.79" stroke="#67C49A" stroke-width="2" stroke-linecap="round"/>
<rect x="436.38" y="219.54" width="10.00" height="25.26" rx="1.5" fill="#67C49A"/>
<line x1="459.00" y1="244.79" x2="459.00" y2="270.32" stroke="#67C49A" stroke-width="2" stroke-linecap="round"/>
<rect x="454.00" y="244.79" width="10.00" height="25.53" rx="1.5" fill="#67C49A"/>
<line x1="476.62" y1="268.02" x2="476.62" y2="279.52" stroke="#E85B55" stroke-width="2" stroke-linecap="round"/>
<rect x="471.62" y="268.02" width="10.00" height="3.00" rx="1.5" fill="#E85B55"/>
<line x1="494.25" y1="265.69" x2="494.25" y2="277.31" stroke="#67C49A" stroke-width="2" stroke-linecap="round"/>
<rect x="489.25" y="268.02" width="10.00" height="9.29" rx="1.5" fill="#67C49A"/>
<line x1="511.88" y1="255.03" x2="511.88" y2="277.31" stroke="#E85B55" stroke-width="2" stroke-linecap="round"/>
<rect x="506.88" y="261.71" width="10.00" height="15.60" rx="1.5" fill="#E85B55"/>
<line x1="529.50" y1="242.62" x2="529.50" y2="261.71" stroke="#E85B55" stroke-width="2" stroke-linecap="round"/>
<rect x="524.50" y="242.62" width="10.00" height="19.09" rx="1.5" fill="#E85B55"/>
<line x1="547.12" y1="242.62" x2="547.12" y2="258.06" stroke="#67C49A" stroke-width="2" stroke-linecap="round"/>
<rect x="542.12" y="242.62" width="10.00" height="10.30" rx="1.5" fill="#67C49A"/>
<line x1="564.75" y1="247.98" x2="564.75" y2="252.91" stroke="#E85B55" stroke-width="2" stroke-linecap="round"/>
<rect x="559.75" y="247.98" width="10.00" height="4.93" rx="1.5" fill="#E85B55"/>
<line x1="582.38" y1="247.98" x2="582.38" y2="268.15" stroke="#67C49A" stroke-width="2" stroke-linecap="round"/>
<rect x="577.38" y="247.98" width="10.00" height="20.17" rx="1.5" fill="#67C49A"/>
<line x1="600.00" y1="268.15" x2="600.00" y2="277.43" stroke="#67C49A" stroke-width="2" stroke-linecap="round"/>
<rect x="595.00" y="268.15" width="10.00" height="9.29" rx="1.5" fill="#67C49A"/>
<line x1="617.62" y1="270.75" x2="617.62" y2="277.43" stroke="#E85B55" stroke-width="2" stroke-linecap="round"/>
<rect x="612.62" y="270.75" width="10.00" height="6.68" rx="1.5" fill="#E85B55"/>
<line x1="635.25" y1="252.39" x2="635.25" y2="270.75" stroke="#E85B55" stroke-width="2" stroke-linecap="round"/>
<rect x="630.25" y="252.39" width="10.00" height="18.36" rx="1.5" fill="#E85B55"/>
<line x1="652.88" y1="237.53" x2="652.88" y2="254.88" stroke="#67C49A" stroke-width="2" stroke-linecap="round"/>
<rect x="647.88" y="252.39" width="10.00" height="3.00" rx="1.5" fill="#67C49A"/>
<line x1="670.50" y1="254.88" x2="670.50" y2="264.68" stroke="#67C49A" stroke-width="2" stroke-linecap="round"/>
<rect x="665.50" y="254.88" width="10.00" height="9.81" rx="1.5" fill="#67C49A"/>
<line x1="688.12" y1="241.14" x2="688.12" y2="264.68" stroke="#E85B55" stroke-width="2" stroke-linecap="round"/>
<rect x="683.12" y="241.14" width="10.00" height="23.54" rx="1.5" fill="#E85B55"/>
<line x1="705.75" y1="230.78" x2="705.75" y2="248.93" stroke="#E85B55" stroke-width="2" stroke-linecap="round"/>
<rect x="700.75" y="233.36" width="10.00" height="7.78" rx="1.5" fill="#E85B55"/>
<line x1="723.38" y1="233.36" x2="723.38" y2="244.03" stroke="#67C49A" stroke-width="2" stroke-linecap="round"/>
<rect x="718.38" y="233.36" width="10.00" height="10.67" rx="1.5" fill="#67C49A"/>
<line x1="741.00" y1="231.21" x2="741.00" y2="244.03" stroke="#E85B55" stroke-width="2" stroke-linecap="round"/>
<rect x="736.00" y="231.21" width="10.00" height="12.81" rx="1.5" fill="#E85B55"/>
<line x1="758.62" y1="223.15" x2="758.62" y2="231.21" stroke="#E85B55" stroke-width="2" stroke-linecap="round"/>
<rect x="753.62" y="223.15" width="10.00" height="8.06" rx="1.5" fill="#E85B55"/>
<line x1="776.25" y1="223.15" x2="776.25" y2="250.86" stroke="#67C49A" stroke-width="2" stroke-linecap="round"/>
<rect x="771.25" y="223.15" width="10.00" height="19.40" rx="1.5" fill="#67C49A"/>
<line x1="793.88" y1="216.78" x2="793.88" y2="242.55" stroke="#E85B55" stroke-width="2" stroke-linecap="round"/>
<rect x="788.88" y="216.78" width="10.00" height="25.78" rx="1.5" fill="#E85B55"/>
<line x1="811.50" y1="199.77" x2="811.50" y2="216.78" stroke="#E85B55" stroke-width="2" stroke-linecap="round"/>
<rect x="806.50" y="199.77" width="10.00" height="17.01" rx="1.5" fill="#E85B55"/>
<line x1="829.12" y1="199.77" x2="829.12" y2="217.79" stroke="#67C49A" stroke-width="2" stroke-linecap="round"/>
<rect x="824.12" y="199.77" width="10.00" height="12.01" rx="1.5" fill="#67C49A"/>
<line x1="846.75" y1="197.35" x2="846.75" y2="211.78" stroke="#E85B55" stroke-width="2" stroke-linecap="round"/>
<rect x="841.75" y="197.35" width="10.00" height="14.44" rx="1.5" fill="#E85B55"/>
<line x1="864.38" y1="197.35" x2="864.38" y2="206.42" stroke="#67C49A" stroke-width="2" stroke-linecap="round"/>
<rect x="859.38" y="197.35" width="10.00" height="9.07" rx="1.5" fill="#67C49A"/>
<line x1="882.00" y1="179.97" x2="882.00" y2="206.42" stroke="#E85B55" stroke-width="2" stroke-linecap="round"/>
<rect x="877.00" y="179.97" width="10.00" height="26.45" rx="1.5" fill="#E85B55"/>
<line x1="899.62" y1="151.16" x2="899.62" y2="179.97" stroke="#E85B55" stroke-width="2" stroke-linecap="round"/>
<rect x="894.62" y="151.16" width="10.00" height="28.81" rx="1.5" fill="#E85B55"/>
<line x1="917.25" y1="140.68" x2="917.25" y2="158.15" stroke="#E85B55" stroke-width="2" stroke-linecap="round"/>
<rect x="912.25" y="144.17" width="10.00" height="6.99" rx="1.5" fill="#E85B55"/>
<line x1="934.88" y1="140.61" x2="934.88" y2="158.42" stroke="#E85B55" stroke-width="2" stroke-linecap="round"/>
<rect x="929.88" y="140.61" width="10.00" height="3.56" rx="1.5" fill="#E85B55"/>
<line x1="952.50" y1="140.61" x2="952.50" y2="162.19" stroke="#67C49A" stroke-width="2" stroke-linecap="round"/>
<rect x="947.50" y="140.61" width="10.00" height="10.79" rx="1.5" fill="#67C49A"/>
<line x1="970.12" y1="144.42" x2="970.12" y2="151.40" stroke="#E85B55" stroke-width="2" stroke-linecap="round"/>
<rect x="965.12" y="144.42" width="10.00" height="6.99" rx="1.5" fill="#E85B55"/>
<line x1="987.75" y1="137.30" x2="987.75" y2="144.42" stroke="#E85B55" stroke-width="2" stroke-linecap="round"/>
<rect x="982.75" y="137.30" width="10.00" height="7.11" rx="1.5" fill="#E85B55"/>
<line x1="1005.38" y1="137.30" x2="1005.38" y2="144.57" stroke="#67C49A" stroke-width="2" stroke-linecap="round"/>
<rect x="1000.38" y="137.30" width="10.00" height="3.62" rx="1.5" fill="#67C49A"/>
<line x1="1023.00" y1="140.92" x2="1023.00" y2="169.67" stroke="#67C49A" stroke-width="2" stroke-linecap="round"/>
<rect x="1018.00" y="140.92" width="10.00" height="10.79" rx="1.5" fill="#67C49A"/>
<line x1="1040.62" y1="130.81" x2="1040.62" y2="151.71" stroke="#E85B55" stroke-width="2" stroke-linecap="round"/>
<rect x="1035.62" y="137.76" width="10.00" height="13.95" rx="1.5" fill="#E85B55"/>
<line x1="1058.25" y1="108.77" x2="1058.25" y2="137.76" stroke="#E85B55" stroke-width="2" stroke-linecap="round"/>
<rect x="1053.25" y="108.77" width="10.00" height="28.99" rx="1.5" fill="#E85B55"/>
<line x1="1075.88" y1="97.03" x2="1075.88" y2="108.77" stroke="#E85B55" stroke-width="2" stroke-linecap="round"/>
<rect x="1070.88" y="97.03" width="10.00" height="11.74" rx="1.5" fill="#E85B55"/>
<line x1="1093.50" y1="76.86" x2="1093.50" y2="97.03" stroke="#E85B55" stroke-width="2" stroke-linecap="round"/>
<rect x="1088.50" y="76.86" width="10.00" height="20.17" rx="1.5" fill="#E85B55"/>
<line x1="1111.12" y1="76.86" x2="1111.12" y2="89.55" stroke="#67C49A" stroke-width="2" stroke-linecap="round"/>
<rect x="1106.12" y="76.86" width="10.00" height="12.69" rx="1.5" fill="#67C49A"/>
<line x1="1128.75" y1="48.48" x2="1128.75" y2="89.55" stroke="#E85B55" stroke-width="2" stroke-linecap="round"/>
<rect x="1123.75" y="48.48" width="10.00" height="41.07" rx="1.5" fill="#E85B55"/>
<line x1="1146.38" y1="48.48" x2="1146.38" y2="84.62" stroke="#67C49A" stroke-width="2" stroke-linecap="round"/>
<rect x="1141.38" y="48.48" width="10.00" height="36.14" rx="1.5" fill="#67C49A"/>
<line x1="1164.00" y1="80.45" x2="1164.00" y2="105.40" stroke="#E85B55" stroke-width="2" stroke-linecap="round"/>
<rect x="1159.00" y="80.45" width="10.00" height="4.17" rx="1.5" fill="#E85B55"/>
<line x1="36.00" y1="308" x2="36.00" y2="313" stroke="#30363D" stroke-width="1"/>
<text x="36.00" y="333" fill="#8B949E" font-family="ui-monospace, Consolas, monospace" font-size="12" text-anchor="middle">06/03</text>
<line x1="265.12" y1="308" x2="265.12" y2="313" stroke="#30363D" stroke-width="1"/>
<text x="265.12" y="333" fill="#8B949E" font-family="ui-monospace, Consolas, monospace" font-size="12" text-anchor="middle">06/16</text>
<line x1="494.25" y1="308" x2="494.25" y2="313" stroke="#30363D" stroke-width="1"/>
<text x="494.25" y="333" fill="#8B949E" font-family="ui-monospace, Consolas, monospace" font-size="12" text-anchor="middle">06/30</text>
<line x1="705.75" y1="308" x2="705.75" y2="313" stroke="#30363D" stroke-width="1"/>
<text x="705.75" y="333" fill="#8B949E" font-family="ui-monospace, Consolas, monospace" font-size="12" text-anchor="middle">07/16</text>
<line x1="934.88" y1="308" x2="934.88" y2="313" stroke="#30363D" stroke-width="1"/>
<text x="934.88" y="333" fill="#8B949E" font-family="ui-monospace, Consolas, monospace" font-size="12" text-anchor="middle">07/29</text>
<line x1="1164.00" y1="308" x2="1164.00" y2="313" stroke="#30363D" stroke-width="1"/>
<text x="1164.00" y="333" fill="#8B949E" font-family="ui-monospace, Consolas, monospace" font-size="12" text-anchor="middle">08/11</text>
<path d="M 1128.75 48.48 V 36.48 H 1072.75" fill="none" stroke="#8B949E" stroke-width="1.25" stroke-linecap="round"/>
<text x="1067.75" y="44.00" fill="#8B949E" font-family="ui-monospace, Consolas, monospace" font-size="13" text-anchor="end">前高 147.4</text>
<path d="M 476.62 279.52 V 291.52 H 532.62" fill="none" stroke="#8B949E" stroke-width="1.25" stroke-linecap="round"/>
<text x="537.62" y="290.00" fill="#8B949E" font-family="ui-monospace, Consolas, monospace" font-size="13" text-anchor="start">前低 72.0</text>
</svg>
