<svg xmlns="http://www.w3.org/2000/svg" viewBox="0 0 1200 350" role="img" aria-label="Life K-line chart">
<rect width="1200" height="350" rx="18" fill="#0D1117"/>
<line x1="36" y1="308" x2="1164" y2="308" stroke="#30363D" stroke-width="1"/>
<line x1="36.00" y1="206.51" x2="36.00" y2="224.77" stroke="#67C49A" stroke-width="2" stroke-linecap="round"/>
<rect x="31.58" y="206.51" width="8.84" height="7.82" rx="1.5" fill="#67C49A"/>
<line x1="51.45" y1="214.34" x2="51.45" y2="219.40" stroke="#E85B55" stroke-width="2" stroke-linecap="round"/>
<rect x="47.03" y="214.34" width="8.84" height="3.00" rx="1.5" fill="#E85B55"/>
<line x1="66.90" y1="201.69" x2="66.90" y2="214.34" stroke="#E85B55" stroke-width="2" stroke-linecap="round"/>
<rect x="62.48" y="201.69" width="8.84" height="12.65" rx="1.5" fill="#E85B55"/>
<line x1="82.36" y1="199.03" x2="82.36" y2="201.69" stroke="#E85B55" stroke-width="2" stroke-linecap="round"/>
<rect x="77.94" y="201.69" width="8.84" height="3.00" rx="1.5" fill="#E85B55"/>
<line x1="97.81" y1="188.41" x2="97.81" y2="201.69" stroke="#E85B55" stroke-width="2" stroke-linecap="round"/>
<rect x="93.39" y="193.71" width="8.84" height="7.98" rx="1.5" fill="#E85B55"/>
<line x1="113.26" y1="190.97" x2="113.26" y2="196.45" stroke="#E85B55" stroke-width="2" stroke-linecap="round"/>
<rect x="108.84" y="190.97" width="8.84" height="3.00" rx="1.5" fill="#E85B55"/>
<line x1="128.71" y1="190.97" x2="128.71" y2="202.03" stroke="#67C49A" stroke-width="2" stroke-linecap="round"/>
<rect x="124.29" y="190.97" width="8.84" height="8.29" rx="1.5" fill="#67C49A"/>
<line x1="144.16" y1="193.89" x2="144.16" y2="226.08" stroke="#67C49A" stroke-width="2" stroke-linecap="round"/>
<rect x="139.74" y="199.26" width="8.84" height="16.09" rx="1.5" fill="#67C49A"/>
<line x1="159.62" y1="215.36" x2="159.62" y2="227.95" stroke="#67C49A" stroke-width="2" stroke-linecap="round"/>
<rect x="155.20" y="215.36" width="8.84" height="12.60" rx="1.5" fill="#67C49A"/>
<line x1="175.07" y1="225.55" x2="175.07" y2="230.35" stroke="#67C49A" stroke-width="2" stroke-linecap="round"/>
<rect x="170.65" y="227.95" width="8.84" height="3.00" rx="1.5" fill="#67C49A"/>
<line x1="190.52" y1="230.35" x2="190.52" y2="244.57" stroke="#67C49A" stroke-width="2" stroke-linecap="round"/>
<rect x="186.10" y="230.35" width="8.84" height="11.84" rx="1.5" fill="#67C49A"/>
<line x1="205.97" y1="233.20" x2="205.97" y2="242.19" stroke="#E85B55" stroke-width="2" stroke-linecap="round"/>
<rect x="201.55" y="237.68" width="8.84" height="4.51" rx="1.5" fill="#E85B55"/>
<line x1="221.42" y1="237.68" x2="221.42" y2="242.27" stroke="#67C49A" stroke-width="2" stroke-linecap="round"/>
<rect x="217.00" y="237.68" width="8.84" height="4.59" rx="1.5" fill="#67C49A"/>
<line x1="236.88" y1="231.03" x2="236.88" y2="242.27" stroke="#E85B55" stroke-width="2" stroke-linecap="round"/>
<rect x="232.46" y="231.03" width="8.84" height="11.24" rx="1.5" fill="#E85B55"/>
<line x1="252.33" y1="231.03" x2="252.33" y2="238.13" stroke="#67C49A" stroke-width="2" stroke-linecap="round"/>
<rect x="247.91" y="231.03" width="8.84" height="7.09" rx="1.5" fill="#67C49A"/>
<line x1="267.78" y1="238.13" x2="267.78" y2="245.01" stroke="#67C49A" stroke-width="2" stroke-linecap="round"/>
<rect x="263.36" y="238.13" width="8.84" height="3.00" rx="1.5" fill="#67C49A"/>
<line x1="283.23" y1="222.27" x2="283.23" y2="240.42" stroke="#E85B55" stroke-width="2" stroke-linecap="round"/>
<rect x="278.81" y="222.27" width="8.84" height="18.15" rx="1.5" fill="#E85B55"/>
<line x1="298.68" y1="217.36" x2="298.68" y2="222.27" stroke="#E85B55" stroke-width="2" stroke-linecap="round"/>
<rect x="294.26" y="217.36" width="8.84" height="4.90" rx="1.5" fill="#E85B55"/>
<line x1="314.14" y1="209.85" x2="314.14" y2="217.36" stroke="#E85B55" stroke-width="2" stroke-linecap="round"/>
<rect x="309.72" y="214.86" width="8.84" height="3.00" rx="1.5" fill="#E85B55"/>
<line x1="329.59" y1="209.80" x2="329.59" y2="219.92" stroke="#67C49A" stroke-width="2" stroke-linecap="round"/>
<rect x="325.17" y="214.86" width="8.84" height="5.06" rx="1.5" fill="#67C49A"/>
<line x1="345.04" y1="219.92" x2="345.04" y2="239.72" stroke="#67C49A" stroke-width="2" stroke-linecap="round"/>
<rect x="340.62" y="219.92" width="8.84" height="19.80" rx="1.5" fill="#67C49A"/>
<line x1="360.49" y1="226.05" x2="360.49" y2="239.72" stroke="#E85B55" stroke-width="2" stroke-linecap="round"/>
<rect x="356.07" y="226.05" width="8.84" height="13.67" rx="1.5" fill="#E85B55"/>
<line x1="375.95" y1="226.05" x2="375.95" y2="235.70" stroke="#67C49A" stroke-width="2" stroke-linecap="round"/>
<rect x="371.52" y="226.05" width="8.84" height="3.00" rx="1.5" fill="#67C49A"/>
<line x1="391.40" y1="228.47" x2="391.40" y2="249.97" stroke="#67C49A" stroke-width="2" stroke-linecap="round"/>
<rect x="386.98" y="228.47" width="8.84" height="21.49" rx="1.5" fill="#67C49A"/>
<line x1="406.85" y1="249.97" x2="406.85" y2="271.69" stroke="#67C49A" stroke-width="2" stroke-linecap="round"/>
<rect x="402.43" y="249.97" width="8.84" height="21.73" rx="1.5" fill="#67C49A"/>
<line x1="422.30" y1="269.74" x2="422.30" y2="279.52" stroke="#E85B55" stroke-width="2" stroke-linecap="round"/>
<rect x="417.88" y="269.74" width="8.84" height="3.00" rx="1.5" fill="#E85B55"/>
<line x1="437.75" y1="267.75" x2="437.75" y2="277.64" stroke="#67C49A" stroke-width="2" stroke-linecap="round"/>
<rect x="433.33" y="269.74" width="8.84" height="7.90" rx="1.5" fill="#67C49A"/>
<line x1="453.21" y1="258.68" x2="453.21" y2="277.64" stroke="#E85B55" stroke-width="2" stroke-linecap="round"/>
<rect x="448.78" y="264.36" width="8.84" height="13.28" rx="1.5" fill="#E85B55"/>
<line x1="468.66" y1="248.11" x2="468.66" y2="264.36" stroke="#E85B55" stroke-width="2" stroke-linecap="round"/>
<rect x="464.24" y="248.11" width="8.84" height="16.25" rx="1.5" fill="#E85B55"/>
<line x1="484.11" y1="248.11" x2="484.11" y2="261.26" stroke="#67C49A" stroke-width="2" stroke-linecap="round"/>
<rect x="479.69" y="248.11" width="8.84" height="8.76" rx="1.5" fill="#67C49A"/>
<line x1="499.56" y1="252.68" x2="499.56" y2="256.88" stroke="#E85B55" stroke-width="2" stroke-linecap="round"/>
<rect x="495.14" y="252.68" width="8.84" height="4.20" rx="1.5" fill="#E85B55"/>
<line x1="515.01" y1="252.68" x2="515.01" y2="269.84" stroke="#67C49A" stroke-width="2" stroke-linecap="round"/>
<rect x="510.59" y="252.68" width="8.84" height="17.16" rx="1.5" fill="#67C49A"/>
<line x1="530.47" y1="269.84" x2="530.47" y2="277.74" stroke="#67C49A" stroke-width="2" stroke-linecap="round"/>
<rect x="526.05" y="269.84" width="8.84" height="7.90" rx="1.5" fill="#67C49A"/>
<line x1="545.92" y1="272.06" x2="545.92" y2="277.74" stroke="#E85B55" stroke-width="2" stroke-linecap="round"/>
<rect x="541.50" y="272.06" width="8.84" height="5.69" rx="1.5" fill="#E85B55"/>
<line x1="561.37" y1="256.43" x2="561.37" y2="272.06" stroke="#E85B55" stroke-width="2" stroke-linecap="round"/>
<rect x="556.95" y="256.43" width="8.84" height="15.62" rx="1.5" fill="#E85B55"/>
<line x1="576.82" y1="243.78" x2="576.82" y2="258.55" stroke="#67C49A" stroke-width="2" stroke-linecap="round"/>
<rect x="572.40" y="256.43" width="8.84" height="3.00" rx="1.5" fill="#67C49A"/>
<line x1="592.27" y1="258.55" x2="592.27" y2="266.89" stroke="#67C49A" stroke-width="2" stroke-linecap="round"/>
<rect x="587.85" y="258.55" width="8.84" height="8.35" rx="1.5" fill="#67C49A"/>
<line x1="607.73" y1="246.86" x2="607.73" y2="266.89" stroke="#E85B55" stroke-width="2" stroke-linecap="round"/>
<rect x="603.31" y="246.86" width="8.84" height="20.03" rx="1.5" fill="#E85B55"/>
<line x1="623.18" y1="238.05" x2="623.18" y2="253.49" stroke="#E85B55" stroke-width="2" stroke-linecap="round"/>
<rect x="618.76" y="240.24" width="8.84" height="6.62" rx="1.5" fill="#E85B55"/>
<line x1="638.63" y1="240.24" x2="638.63" y2="249.31" stroke="#67C49A" stroke-width="2" stroke-linecap="round"/>
<rect x="634.21" y="240.24" width="8.84" height="9.08" rx="1.5" fill="#67C49A"/>
<line x1="654.08" y1="238.41" x2="654.08" y2="249.31" stroke="#E85B55" stroke-width="2" stroke-linecap="round"/>
<rect x="649.66" y="238.41" width="8.84" height="10.90" rx="1.5" fill="#E85B55"/>
<line x1="669.53" y1="231.55" x2="669.53" y2="238.41" stroke="#E85B55" stroke-width="2" stroke-linecap="round"/>
<rect x="665.11" y="231.55" width="8.84" height="6.86" rx="1.5" fill="#E85B55"/>
<line x1="684.99" y1="231.55" x2="684.99" y2="255.13" stroke="#67C49A" stroke-width="2" stroke-linecap="round"/>
<rect x="680.57" y="231.55" width="8.84" height="16.51" rx="1.5" fill="#67C49A"/>
<line x1="700.44" y1="226.13" x2="700.44" y2="248.06" stroke="#E85B55" stroke-width="2" stroke-linecap="round"/>
<rect x="696.02" y="226.13" width="8.84" height="21.93" rx="1.5" fill="#E85B55"/>
<line x1="715.89" y1="211.65" x2="715.89" y2="226.13" stroke="#E85B55" stroke-width="2" stroke-linecap="round"/>
<rect x="711.47" y="211.65" width="8.84" height="14.48" rx="1.5" fill="#E85B55"/>
<line x1="731.34" y1="211.65" x2="731.34" y2="226.99" stroke="#67C49A" stroke-width="2" stroke-linecap="round"/>
<rect x="726.92" y="211.65" width="8.84" height="10.22" rx="1.5" fill="#67C49A"/>
<line x1="746.79" y1="209.59" x2="746.79" y2="221.88" stroke="#E85B55" stroke-width="2" stroke-linecap="round"/>
<rect x="742.37" y="209.59" width="8.84" height="12.28" rx="1.5" fill="#E85B55"/>
<line x1="762.25" y1="209.59" x2="762.25" y2="217.31" stroke="#67C49A" stroke-width="2" stroke-linecap="round"/>
<rect x="757.83" y="209.59" width="8.84" height="7.72" rx="1.5" fill="#67C49A"/>
<line x1="777.70" y1="194.80" x2="777.70" y2="217.31" stroke="#E85B55" stroke-width="2" stroke-linecap="round"/>
<rect x="773.28" y="194.80" width="8.84" height="22.51" rx="1.5" fill="#E85B55"/>
<line x1="793.15" y1="170.29" x2="793.15" y2="194.80" stroke="#E85B55" stroke-width="2" stroke-linecap="round"/>
<rect x="788.73" y="170.29" width="8.84" height="24.52" rx="1.5" fill="#E85B55"/>
<line x1="808.60" y1="161.37" x2="808.60" y2="176.23" stroke="#E85B55" stroke-width="2" stroke-linecap="round"/>
<rect x="804.18" y="164.34" width="8.84" height="5.95" rx="1.5" fill="#E85B55"/>
<line x1="824.05" y1="161.31" x2="824.05" y2="176.47" stroke="#E85B55" stroke-width="2" stroke-linecap="round"/>
<rect x="819.63" y="161.31" width="8.84" height="3.03" rx="1.5" fill="#E85B55"/>
<line x1="839.51" y1="161.31" x2="839.51" y2="179.68" stroke="#67C49A" stroke-width="2" stroke-linecap="round"/>
<rect x="835.09" y="161.31" width="8.84" height="9.18" rx="1.5" fill="#67C49A"/>
<line x1="854.96" y1="164.55" x2="854.96" y2="170.49" stroke="#E85B55" stroke-width="2" stroke-linecap="round"/>
<rect x="850.54" y="164.55" width="8.84" height="5.95" rx="1.5" fill="#E85B55"/>
<line x1="870.41" y1="158.50" x2="870.41" y2="164.55" stroke="#E85B55" stroke-width="2" stroke-linecap="round"/>
<rect x="865.99" y="158.50" width="8.84" height="6.05" rx="1.5" fill="#E85B55"/>
<line x1="885.86" y1="158.50" x2="885.86" y2="164.68" stroke="#67C49A" stroke-width="2" stroke-linecap="round"/>
<rect x="881.44" y="158.50" width="8.84" height="3.08" rx="1.5" fill="#67C49A"/>
<line x1="901.32" y1="161.57" x2="901.32" y2="186.04" stroke="#67C49A" stroke-width="2" stroke-linecap="round"/>
<rect x="896.89" y="161.57" width="8.84" height="9.18" rx="1.5" fill="#67C49A"/>
<line x1="916.77" y1="152.97" x2="916.77" y2="170.76" stroke="#E85B55" stroke-width="2" stroke-linecap="round"/>
<rect x="912.35" y="158.89" width="8.84" height="11.87" rx="1.5" fill="#E85B55"/>
<line x1="932.22" y1="134.21" x2="932.22" y2="158.89" stroke="#E85B55" stroke-width="2" stroke-linecap="round"/>
<rect x="927.80" y="134.21" width="8.84" height="24.67" rx="1.5" fill="#E85B55"/>
<line x1="947.67" y1="124.22" x2="947.67" y2="134.21" stroke="#E85B55" stroke-width="2" stroke-linecap="round"/>
<rect x="943.25" y="124.22" width="8.84" height="9.99" rx="1.5" fill="#E85B55"/>
<line x1="963.12" y1="107.06" x2="963.12" y2="124.22" stroke="#E85B55" stroke-width="2" stroke-linecap="round"/>
<rect x="958.70" y="107.06" width="8.84" height="17.16" rx="1.5" fill="#E85B55"/>
<line x1="978.58" y1="107.06" x2="978.58" y2="117.86" stroke="#67C49A" stroke-width="2" stroke-linecap="round"/>
<rect x="974.15" y="107.06" width="8.84" height="10.80" rx="1.5" fill="#67C49A"/>
<line x1="994.03" y1="82.91" x2="994.03" y2="117.86" stroke="#E85B55" stroke-width="2" stroke-linecap="round"/>
<rect x="989.61" y="82.91" width="8.84" height="34.95" rx="1.5" fill="#E85B55"/>
<line x1="1009.48" y1="82.91" x2="1009.48" y2="113.66" stroke="#67C49A" stroke-width="2" stroke-linecap="round"/>
<rect x="1005.06" y="82.91" width="8.84" height="30.75" rx="1.5" fill="#67C49A"/>
<line x1="1024.93" y1="110.11" x2="1024.93" y2="131.35" stroke="#E85B55" stroke-width="2" stroke-linecap="round"/>
<rect x="1020.51" y="110.11" width="8.84" height="3.55" rx="1.5" fill="#E85B55"/>
<line x1="1040.38" y1="110.11" x2="1040.38" y2="124.41" stroke="#67C49A" stroke-width="2" stroke-linecap="round"/>
<rect x="1035.96" y="110.11" width="8.84" height="7.15" rx="1.5" fill="#67C49A"/>
<line x1="1055.84" y1="117.26" x2="1055.84" y2="131.27" stroke="#67C49A" stroke-width="2" stroke-linecap="round"/>
<rect x="1051.42" y="117.26" width="8.84" height="14.01" rx="1.5" fill="#67C49A"/>
<line x1="1071.29" y1="121.17" x2="1071.29" y2="131.27" stroke="#E85B55" stroke-width="2" stroke-linecap="round"/>
<rect x="1066.87" y="121.17" width="8.84" height="10.09" rx="1.5" fill="#E85B55"/>
<line x1="1086.74" y1="86.56" x2="1086.74" y2="121.17" stroke="#E85B55" stroke-width="2" stroke-linecap="round"/>
<rect x="1082.32" y="86.56" width="8.84" height="34.61" rx="1.5" fill="#E85B55"/>
<line x1="1102.19" y1="48.48" x2="1102.19" y2="86.56" stroke="#E85B55" stroke-width="2" stroke-linecap="round"/>
<rect x="1097.77" y="48.48" width="8.84" height="38.08" rx="1.5" fill="#E85B55"/>
<line x1="1117.64" y1="48.48" x2="1117.64" y2="73.63" stroke="#67C49A" stroke-width="2" stroke-linecap="round"/>
<rect x="1113.22" y="48.48" width="8.84" height="4.20" rx="1.5" fill="#67C49A"/>
<line x1="1133.10" y1="52.68" x2="1133.10" y2="60.98" stroke="#E85B55" stroke-width="2" stroke-linecap="round"/>
<rect x="1128.68" y="52.68" width="8.84" height="3.00" rx="1.5" fill="#E85B55"/>
<line x1="1148.55" y1="52.68" x2="1148.55" y2="94.15" stroke="#67C49A" stroke-width="2" stroke-linecap="round"/>
<rect x="1144.13" y="52.68" width="8.84" height="41.47" rx="1.5" fill="#67C49A"/>
<line x1="1164.00" y1="94.15" x2="1164.00" y2="124.02" stroke="#67C49A" stroke-width="2" stroke-linecap="round"/>
<rect x="1159.58" y="94.15" width="8.84" height="11.19" rx="1.5" fill="#67C49A"/>
<line x1="36.00" y1="308" x2="36.00" y2="313" stroke="#30363D" stroke-width="1"/>
<text x="36.00" y="333" fill="#8B949E" font-family="ui-monospace, Consolas, monospace" font-size="12" text-anchor="middle">06/03</text>
<line x1="267.78" y1="308" x2="267.78" y2="313" stroke="#30363D" stroke-width="1"/>
<text x="267.78" y="333" fill="#8B949E" font-family="ui-monospace, Consolas, monospace" font-size="12" text-anchor="middle">06/18</text>
<line x1="484.11" y1="308" x2="484.11" y2="313" stroke="#30363D" stroke-width="1"/>
<text x="484.11" y="333" fill="#8B949E" font-family="ui-monospace, Consolas, monospace" font-size="12" text-anchor="middle">07/06</text>
<line x1="715.89" y1="308" x2="715.89" y2="313" stroke="#30363D" stroke-width="1"/>
<text x="715.89" y="333" fill="#8B949E" font-family="ui-monospace, Consolas, monospace" font-size="12" text-anchor="middle">07/22</text>
<line x1="932.22" y1="308" x2="932.22" y2="313" stroke="#30363D" stroke-width="1"/>
<text x="932.22" y="333" fill="#8B949E" font-family="ui-monospace, Consolas, monospace" font-size="12" text-anchor="middle">08/05</text>
<line x1="1164.00" y1="308" x2="1164.00" y2="313" stroke="#30363D" stroke-width="1"/>
<text x="1164.00" y="333" fill="#8B949E" font-family="ui-monospace, Consolas, monospace" font-size="12" text-anchor="middle">08/20</text>
<path d="M 1102.19 48.48 V 36.48 H 1046.19" fill="none" stroke="#8B949E" stroke-width="1.25" stroke-linecap="round"/>
<text x="1041.19" y="44.00" fill="#8B949E" font-family="ui-monospace, Consolas, monospace" font-size="13" text-anchor="end">前高 160.6</text>
<path d="M 422.30 279.52 V 291.52 H 478.30" fill="none" stroke="#8B949E" stroke-width="1.25" stroke-linecap="round"/>
<text x="483.30" y="290.00" fill="#8B949E" font-family="ui-monospace, Consolas, monospace" font-size="13" text-anchor="start">前低 72.0</text>
</svg>
